<svg xmlns="http://www.w3.org/2000/svg" width="1130" height="1130" viewBox="0 0 1130 1130">
  <g id="Group_9" data-name="Group 9" transform="translate(-35 -35)">
    <rect id="Rectangle_8" data-name="Rectangle 8" width="1130" height="1130" transform="translate(35 35)" fill="#efeff0"/>
    <path id="Path_1" data-name="Path 1" d="M984.134,151.058c66.543,85.564,77.63,206.6,84.131,317.558s8.685,211.638-18.073,331.946c-26.822,120.079-82.445,259.575-187.548,323.564-105.1,64.23-259.865,52.967-389.07-4.318C344.37,1062.766,240.952,959.7,174.422,838.671c-66.289-121.274-95.7-260.223-39.773-351.362S331.585,353.1,435.487,274.249C539.62,195.39,606.636,80.834,701.381,48.478,795.87,15.893,917.6,65.735,984.134,151.058Z" transform="translate(11.19 -3.071)" fill="#dddddf"/>
    <rect id="Rectangle_1" data-name="Rectangle 1" width="340.736" height="708.213" transform="translate(585.25 219.498)" fill="#ffc42b"/>
    <rect id="Rectangle_2" data-name="Rectangle 2" width="79.253" height="708.213" transform="translate(925.057 219.498)" fill="#051c2e"/>
    <rect id="Rectangle_3" data-name="Rectangle 3" width="284.275" height="59.145" transform="translate(613.473 264.285)" fill="#fa7414"/>
    <ellipse id="Ellipse_1" data-name="Ellipse 1" cx="9.617" cy="10.379" rx="9.617" ry="10.379" transform="translate(624.291 276.067)" fill="#f3f3f3"/>
    <line id="Line_1" data-name="Line 1" x1="147.989" transform="translate(651.599 286.447)" fill="none"/>
    <rect id="Rectangle_4" data-name="Rectangle 4" width="284.275" height="59.145" transform="translate(613.473 364.253)" fill="#fa7414"/>
    <ellipse id="Ellipse_2" data-name="Ellipse 2" cx="9.617" cy="10.379" rx="9.617" ry="10.379" transform="translate(624.291 376.035)" fill="#f3f3f3"/>
    <line id="Line_2" data-name="Line 2" x1="147.989" transform="translate(651.599 386.415)" fill="none"/>
    <rect id="Rectangle_5" data-name="Rectangle 5" width="284.275" height="59.145" transform="translate(613.473 464.236)" fill="#fa7414"/>
    <ellipse id="Ellipse_3" data-name="Ellipse 3" cx="9.617" cy="10.379" rx="9.617" ry="10.379" transform="translate(624.291 475.988)" fill="#f3f3f3"/>
    <line id="Line_3" data-name="Line 3" x1="147.989" transform="translate(651.599 486.367)" fill="none"/>
    <rect id="Rectangle_6" data-name="Rectangle 6" width="284.275" height="59.145" transform="translate(613.473 564.189)" fill="#fa7414"/>
    <ellipse id="Ellipse_4" data-name="Ellipse 4" cx="9.617" cy="10.379" rx="9.617" ry="10.379" transform="translate(624.291 575.956)" fill="#f3f3f3"/>
    <line id="Line_4" data-name="Line 4" x1="147.989" transform="translate(651.599 586.336)" fill="none"/>
    <rect id="Rectangle_7" data-name="Rectangle 7" width="284.275" height="59.145" transform="translate(613.473 664.157)" fill="#fa7414"/>
    <ellipse id="Ellipse_5" data-name="Ellipse 5" cx="9.617" cy="10.379" rx="9.617" ry="10.379" transform="translate(624.291 675.924)" fill="#f3f3f3"/>
    <line id="Line_5" data-name="Line 5" x1="147.989" transform="translate(651.599 686.304)" fill="none"/>
    <line id="Line_6" data-name="Line 6" x1="42.642" transform="translate(943.348 306.835)" fill="none"/>
    <line id="Line_7" data-name="Line 7" x1="42.642" transform="translate(943.348 318.757)" fill="#cdd2d5"/>
    <line id="Line_8" data-name="Line 8" x1="42.642" transform="translate(943.348 387.88)" fill="#cdd2d5"/>
    <line id="Line_9" data-name="Line 9" x1="42.642" transform="translate(943.348 399.786)" fill="none"/>
    <line id="Line_10" data-name="Line 10" x1="42.642" transform="translate(943.348 486.367)" fill="#cdd2d5"/>
    <line id="Line_11" data-name="Line 11" x1="42.642" transform="translate(943.348 498.289)" fill="none"/>
    <line id="Line_12" data-name="Line 12" x1="42.642" transform="translate(943.348 581.663)" fill="#cdd2d5"/>
    <line id="Line_13" data-name="Line 13" x1="42.642" transform="translate(943.348 593.569)" fill="none"/>
    <path id="Path_2" data-name="Path 2" d="M359.921,929.762,335.9,942.976v3.255h46.909V929.762Z" transform="translate(11.19 -3.071)"/>
    <path id="Path_3" data-name="Path 3" d="M483.063,930.669h23.028v14.792H483.063Z" transform="translate(11.19 -3.071)"/>
    <path id="Path_4" data-name="Path 4" d="M300.643,695.756l85.628,23.735L371.7,765.363l-85.628-23.734Z" transform="translate(11.19 -3.071)" fill="#fff"/>
    <path id="Path_5" data-name="Path 5" d="M374.243,625.714,358.814,931.2l26,.2L438.1,731.489l-1.273-99.462Z" transform="translate(11.19 -3.071)" fill="#626161"/>
    <path id="Path_6" data-name="Path 6" d="M509.122,625.116c-.418,8.688-1.487,306.713-1.487,306.713L482.276,932,403.42,632.616S509.559,616.437,509.122,625.116Z" transform="translate(11.19 -3.071)" fill="#777272"/>
    <path id="Path_7" data-name="Path 7" d="M350.9,541.243c-5.267,8.29-17.878,70.831-17.761,85.46-4.062,13.1-.768,52.511-.661,57.735s-.972,24.768.223,29.575c-3.187,7.582,12.932,23.344,17.868,23.752s10.746-7.672,10.746-11.572c0-9.922-6.927-18.311-6.8-22.41.661-20.47,10.2-72.672,11.407-76.182s5.266-10.339,8.667-13.105,5.042-63.658,5.042-63.658S353.713,536.827,350.9,541.243Z" transform="translate(11.19 -3.071)" fill="#edb392"/>
    <path id="Path_8" data-name="Path 8" d="M419.928,435.759c0,2.575,1.691,26.21-1.535,31.515s31.849,3.51,31.849-.508-1.156-22.673,1.681-29.429S419.928,433.174,419.928,435.759Z" transform="translate(11.19 -3.071)" fill="#edb392"/>
    <path id="Path_9" data-name="Path 9" d="M539.291,505.764l5.13,3.492s44.072-79.646,44.606-82.53-2.914-9.977-2.39-13.359,18.257-19.79,23.814-20.044,5.995,2.313,4.635,4.843-12,12.616-12,12.616,7.365-1.9,9.939,0,12.34,14.048,8.677,19.363-10.688,7.972-12.068,11.137-43.256,113.085-48.4,115.252c-8.676,3.628-36.736-9.069-40.943-15.309S539.291,505.764,539.291,505.764Z" transform="translate(11.19 -3.071)" fill="#f2b592"/>
    <path id="Path_10" data-name="Path 10" d="M403.1,471.446c28.808,9.713,10.056,81.188.913,86.158-7.239,3.918-60.143-11.645-61.95-19.109C339.381,527.44,378.061,463.012,403.1,471.446Z" transform="translate(11.19 -3.071)" fill="#60346f"/>
    <path id="Path_11" data-name="Path 11" d="M439.331,458.55c73.969-.227,81.159,157.234,68.742,168.008-22.347,19.417-129.856,10.72-134.54.417C365.848,610.088,369.462,458.758,439.331,458.55Z" transform="translate(11.19 -3.071)" fill="#7d3297"/>
    <path id="Path_12" data-name="Path 12" d="M450.116,486.41c12.757-25.983,87.513-2.593,92.021,6.349,3.586,7.065-17.489,54.978-25.563,56.039C504.575,550.34,439.02,508.993,450.116,486.41Z" transform="translate(11.19 -3.071)" fill="#9646b2"/>
    <path id="Path_13" data-name="Path 13" d="M407.1,402.148c0-22.564,14.953-40.857,33.4-40.857s33.4,18.293,33.4,40.857-14.953,40.866-33.4,40.866S407.1,424.712,407.1,402.148Z" transform="translate(11.19 -3.071)" fill="#edb392"/>
    <path id="Path_14" data-name="Path 14" d="M396.1,396.888c-1.224-17.051,9.337-32.895,13.1-42.853,3.246-9.577,9.716-16.687,18.072-17.059s10.688,1.6,16.255,1.415,15.235-6.067,21.531-6.067,10.057,4.2,13.943,6.829,11.912,7.582,11.883,11.944c-.165,26.228-25.845,23.743-33.317,31.28-5.072,3.981-5.382,13.277-7.918,14.792s-8.026.617-8.123,8.062c-.058,4.381,1.214,7.963,4.567,8.244s4.537,1.424,4.469,3.7c-.709,21.965-17.324,26.092-24.1,25.457-9.493-.834-12.184-11.654-14.526-15.354C402.964,417.928,396.862,407.608,396.1,396.888Z" transform="translate(11.19 -3.071)"/>
  </g>
</svg>
