<svg id="globe2" xmlns="http://www.w3.org/2000/svg" width="24" height="24" viewBox="0 0 24 24">
  <path id="globe2-2" data-name="globe2" d="M12,24A12,12,0,0,1,3.515,3.515,12,12,0,1,1,20.485,20.485,11.922,11.922,0,0,1,12,24Zm.751-6.135v4.52A5.281,5.281,0,0,0,15.581,19.6a11.5,11.5,0,0,0,.592-1.308A18.951,18.951,0,0,0,12.75,17.865Zm-1.5,0a19,19,0,0,0-3.422.429A11.829,11.829,0,0,0,8.42,19.6a5.29,5.29,0,0,0,2.831,2.783Zm6.377.825a13.3,13.3,0,0,1-.722,1.617,10.063,10.063,0,0,1-.9,1.4,10.461,10.461,0,0,0,3.413-2.281,12.7,12.7,0,0,0-1.8-.735h0Zm-11.253,0h0a12.615,12.615,0,0,0-1.8.734A10.453,10.453,0,0,0,7.99,21.708a10.237,10.237,0,0,1-.9-1.4,13.373,13.373,0,0,1-.721-1.618Zm12.364-5.94a20.089,20.089,0,0,1-.655,4.512,13.607,13.607,0,0,1,2.347,1,10.429,10.429,0,0,0,2.043-5.512Zm-17.211,0A10.42,10.42,0,0,0,3.57,18.263a13.6,13.6,0,0,1,2.347-1,20.041,20.041,0,0,1-.655-4.512Zm11.223,0v3.613a20.225,20.225,0,0,1,3.886.5,18.381,18.381,0,0,0,.6-4.111Zm-5.985,0a18.278,18.278,0,0,0,.6,4.111,20.451,20.451,0,0,1,3.886-.5V12.75ZM20.43,5.738a13.679,13.679,0,0,1-2.347,1,20.059,20.059,0,0,1,.655,4.512h3.735A10.424,10.424,0,0,0,20.43,5.738Zm-3.793,1.4a20.523,20.523,0,0,1-3.886.5V11.25h4.485A18.586,18.586,0,0,0,16.637,7.14Zm-9.273,0h0a18.533,18.533,0,0,0-.6,4.111H11.25V7.637a20.276,20.276,0,0,1-3.886-.5ZM3.57,5.738A10.415,10.415,0,0,0,1.527,11.25H5.262a20.037,20.037,0,0,1,.655-4.512A13.764,13.764,0,0,1,3.57,5.738Zm7.68-4.122A5.279,5.279,0,0,0,8.42,4.4a11.417,11.417,0,0,0-.592,1.308,19.012,19.012,0,0,0,3.423.43Zm1.5,0v4.52A19.01,19.01,0,0,0,16.17,5.7a11.226,11.226,0,0,0-.59-1.306A5.288,5.288,0,0,0,12.75,1.616Zm-4.76.677A10.464,10.464,0,0,0,4.577,4.575a12.41,12.41,0,0,0,1.8.735,13.13,13.13,0,0,1,.721-1.618A10.152,10.152,0,0,1,7.99,2.292Zm8.019,0a9.991,9.991,0,0,1,.9,1.4,13.646,13.646,0,0,1,.724,1.616,12.564,12.564,0,0,0,1.794-.734A10.467,10.467,0,0,0,16.009,2.293Z" transform="translate(0 0)" fill="#000000"/>
</svg>
