<svg xmlns="http://www.w3.org/2000/svg" width="1130" height="1130" viewBox="0 0 1130 1130">
  <g id="Group_12" data-name="Group 12" transform="translate(-1349 -1299)">
    <rect id="Rectangle_71" data-name="Rectangle 71" width="1130" height="1130" transform="translate(1349 1299)" fill="#efeff0"/>
    <path id="Path_156" data-name="Path 156" d="M840.592,136.85c65.963,58.449,109.132,140,178.437,257.215,69.628,117.216,165.641,270.082,129.229,361.217S942.366,875.794,782.34,935.558s-310.686,149.57-449.281,132.063S67.931,925.323,36.108,787.3C3.962,648.952,66.231,497.4,111.086,359.383c44.532-138,71.65-262.535,149.648-318.917S467.638-3.8,576.784,19.634C685.917,43.358,774.629,78.415,840.592,136.85Z" transform="translate(1321.758 1334.589)" fill="#dddddf"/>
    <g id="Group_7" data-name="Group 7" transform="translate(1388.762 1416.22)">
      <path id="Path_30" data-name="Path 30" d="M171.08,774.78h-31.3v37.07H93.89V774.78H0v-14L108.48,612.52h31.3V735.28h31.3Zm-77.19-39.5V689.09L61.08,735.28Z" fill="#051c2e"/>
      <path id="Path_31" data-name="Path 31" d="M197.21,712.49c0-57.43,16.71-102.71,75-102.71,58,0,74.14,45.28,74.14,102.71,0,57.13-16.1,102.1-74.14,102.1C213.92,814.59,197.21,769.62,197.21,712.49Zm103.31,0c0-34.64-6.69-61.38-28.26-61.38-21.88,0-29.47,26.74-29.47,61.38,0,34.33,7.59,60.47,29.47,60.47,21.57.04,28.26-26.14,28.26-60.47Z" fill="#051c2e"/>
      <path id="Path_32" data-name="Path 32" d="M535.1,774.78H503.8v37.07H457.92V774.78H364v-14L472.5,612.52h31.3V735.28h31.3Zm-77.18-39.5V689.09L425.1,735.28Z" fill="#051c2e"/>
    </g>
    <rect id="Rectangle_72" data-name="Rectangle 72" width="119.93" height="222.98" rx="12" transform="translate(2035.386 1569.907)"/>
    <path id="Path_157" data-name="Path 157" d="M451,700.49v26H380.4v-11l43.74-20.09Z" transform="translate(1594.696 1456.977)" fill="#333"/>
    <path id="Path_158" data-name="Path 158" d="M604.15,675.56c3.57,8,12,28.73,12,28.73l-35.23,22.15H549l-3.74-12.24,40.1-30.69Z" transform="translate(1594.696 1456.977)" fill="#333"/>
    <ellipse id="Ellipse_33" data-name="Ellipse 33" cx="29.77" cy="37.54" rx="29.77" ry="37.54" transform="translate(2047.046 1489.847)" fill="#edb392"/>
    <path id="Path_159" data-name="Path 159" d="M460.44,3.36C456.54-2,445.53-.79,435.85,6.18a33.852,33.852,0,0,0-9.16,9.67,2.694,2.694,0,0,0-1-.23c-4.7,0-82.83,41.79-82.09,61.07s26.95,50.2,36.1,56.13c0,0,41.29-19.28,39.07-25.47s-26-26-30.17-29.92c4.9-2.56,44.12-41.42,48.55-45.82A33.222,33.222,0,0,0,450,25.8C459.66,18.82,464.35,8.78,460.44,3.36Z" transform="translate(1594.696 1456.977)" fill="#edb392"/>
    <path id="Path_160" data-name="Path 160" d="M438,166.65c9-7.24-5.9-67.95-21.87-69.44s-43.82,28.6-42.7,37.14S415.26,184.85,438,166.65Z" transform="translate(1594.696 1456.977)" fill="#60346f"/>
    <path id="Path_161" data-name="Path 161" d="M402.27,312c0,10,5,356,14,386,8,4,29,5,36,2s51.67-382.52,51.67-399.18S402.27,312,402.27,312Z" transform="translate(1594.696 1456.977)" fill="#626161"/>
    <path id="Path_162" data-name="Path 162" d="M581.61,687.19c-9.55-15-133.9-306.28-143.65-378.1,10.21-7.91,86.19-20.52,92.34-6.16s80,369.39,77.47,374S588.79,688.73,581.61,687.19Z" transform="translate(1594.696 1456.977)" fill="#777272"/>
    <path id="Path_163" data-name="Path 163" d="M482.54,119c64.5,0,60.5,178.5,46.5,189.5S405.54,320,398.54,312,375,119,482.54,119Z" transform="translate(1594.696 1456.977)" fill="#7d3297"/>
    <path id="Path_164" data-name="Path 164" d="M529.47,57.66c0-7.61-7.27-13.1-7.27-17.32s2.49-11.78-3.08-17.19c-6.77-6.57-17.56-3.83-27.22-3.83-9.08,0-14.09-10.55-26.48-10.55-8.26,0-7.21,10.72-10.3,13.38-2.29,2-20.14,5.84-20.14,14,0,9.12.24,21.36,19.18,21.36,1.26-4.38,6-14,11.4-18.28,2.78,1.2,18,7.48,21.77,8.59s9.28,17.25,15.12,19.2,6.21,12.7,10.48,12.24S529.47,77,529.47,57.66Z" transform="translate(1594.696 1456.977)"/>
    <circle id="Ellipse_34" data-name="Ellipse 34" cx="7.87" cy="7.87" r="7.87" transform="translate(2094.576 1522.477)" fill="#edb392"/>
    <path id="Path_165" data-name="Path 165" d="M497,133c-1.26,4.35-27.71-.93-27.2-5.85l4.52-43.7,31.87,6.86S498.28,128.67,497,133Z" transform="translate(1594.696 1456.977)" fill="#edb392"/>
    <line id="Line_32" data-name="Line 32" x1="111.85" y2="554.47" transform="translate(2160.006 1613.417)" fill="none"/>
    <path id="Path_166" data-name="Path 166" d="M659.22,309.44a20.392,20.392,0,0,0-11-5.75c-13.34-21.53-58.67-87.89-78.66-112-14.41,10.35-32,28.45-32,28.45,7.35,8.24,62.4,73.37,91.69,98.91a19.91,19.91,0,0,0,6,14.37c7.41,7.42,18.79,8.06,25.41,1.45S666.63,316.86,659.22,309.44Z" transform="translate(1594.696 1456.977)" fill="#edb392"/>
    <path id="Path_167" data-name="Path 167" d="M507.87,148.25c25.87-19.23,68.52,27.27,67.82,39.5S542.21,227.1,531,227.13C517.31,227.15,485.85,164.62,507.87,148.25Z" transform="translate(1594.696 1456.977)" fill="#9646b2"/>
    <rect id="Rectangle_73" data-name="Rectangle 73" width="1130" height="1130" transform="translate(1349 1299)" fill="#151515"/>
    <path id="Path_168" data-name="Path 168" d="M840.592,136.85c65.963,58.449,109.132,140,178.437,257.215,69.628,117.216,165.641,270.082,129.229,361.217S942.366,875.794,782.34,935.558s-310.686,149.57-449.281,132.063S67.931,925.323,36.108,787.3C3.962,648.952,66.231,497.4,111.086,359.383c44.532-138,71.65-262.535,149.648-318.917S467.638-3.8,576.784,19.634C685.917,43.358,774.629,78.415,840.592,136.85Z" transform="translate(1321.758 1334.589)" fill="#1e1e1e"/>
    <g id="Group_8" data-name="Group 8" transform="translate(1519.706 1608)">
      <rect id="Rectangle_25" data-name="Rectangle 25" width="119.93" height="222.98" rx="12" transform="translate(116.54 112.907)"/>
      <path id="Path_45" data-name="Path 45" d="M380.4,700.49v26H451v-11L407.26,695.4Z" transform="translate(-154.24 -0.023)" fill="#333"/>
      <path id="Path_46" data-name="Path 46" d="M557.26,675.56c-3.57,8-12,28.73-12,28.73l35.23,22.15h31.92l3.74-12.24-40.1-30.69Z" transform="translate(-484.25 -0.023)" fill="#333"/>
      <ellipse id="Ellipse_13" data-name="Ellipse 13" cx="29.77" cy="37.54" rx="29.77" ry="37.54" transform="translate(165.27 32.847)" fill="#edb392"/>
      <path id="Path_47" data-name="Path 47" d="M344.974,3.36c3.9-5.36,14.91-4.15,24.59,2.82a33.852,33.852,0,0,1,9.16,9.67,2.694,2.694,0,0,1,1-.23c4.7,0,82.83,41.79,82.09,61.07s-26.95,50.2-36.1,56.13c0,0-41.29-19.28-39.07-25.47s26-26,30.17-29.92c-4.9-2.56-44.12-41.42-48.55-45.82a33.222,33.222,0,0,1-12.85-5.81C345.754,18.82,341.064,8.78,344.974,3.36Z" transform="translate(-128.254 -0.023)" fill="#edb392"/>
      <path id="Path_48" data-name="Path 48" d="M376.117,166.65c-9-7.24,5.9-67.95,21.87-69.44s43.82,28.6,42.7,37.14S398.857,184.85,376.117,166.65Z" transform="translate(-136.957 -0.023)" fill="#60346f"/>
      <path id="Path_49" data-name="Path 49" d="M503.94,312c0,10-5,356-14,386-8,4-29,5-36,2s-51.67-382.52-51.67-399.18S503.94,312,503.94,312Z" transform="translate(-229.05 -0.023)" fill="#626161"/>
      <path id="Path_50" data-name="Path 50" d="M464.184,687.19c9.55-15,133.9-306.28,143.65-378.1-10.21-7.91-86.19-20.52-92.34-6.16s-80,369.39-77.47,374S457,688.73,464.184,687.19Z" transform="translate(-368.634 -0.023)" fill="#777272"/>
      <path id="Path_51" data-name="Path 51" d="M448.278,119c-64.5,0-60.5,178.5-46.5,189.5s123.5,11.5,130.5,3.5S555.818,119,448.278,119Z" transform="translate(-253.658 -0.023)" fill="#7d3297"/>
      <path id="Path_52" data-name="Path 52" d="M434.98,57.66c0-7.61,7.27-13.1,7.27-17.32s-2.49-11.78,3.08-17.19c6.77-6.57,17.56-3.83,27.22-3.83,9.08,0,14.09-10.55,26.48-10.55,8.26,0,7.21,10.72,10.3,13.38,2.29,2,20.14,5.84,20.14,14,0,9.12-.24,21.36-19.18,21.36-1.26-4.38-6-14-11.4-18.28-2.78,1.2-18,7.48-21.77,8.59S467.84,65.07,462,67.02s-6.21,12.7-10.48,12.24S434.98,77,434.98,57.66Z" transform="translate(-287.29 -0.023)"/>
      <ellipse id="Ellipse_14" data-name="Ellipse 14" cx="7.87" cy="7.87" rx="7.87" ry="7.87" transform="translate(161.54 65.477)" fill="#edb392"/>
      <path id="Path_53" data-name="Path 53" d="M478.983,133c1.26,4.35,27.71-.93,27.2-5.85l-4.52-43.7-31.87,6.86S477.7,128.67,478.983,133Z" transform="translate(-298.823 -0.023)" fill="#edb392"/>
      <line id="Line_28" data-name="Line 28" x2="111.85" y2="554.47" transform="translate(0 156.417)" fill="none"/>
      <path id="Path_54" data-name="Path 54" d="M543.57,309.44a20.392,20.392,0,0,1,11-5.75c13.34-21.53,58.67-87.89,78.66-112,14.41,10.35,32,28.45,32,28.45-7.35,8.24-62.4,73.37-91.69,98.91a19.91,19.91,0,0,1-6,14.37c-7.41,7.42-18.79,8.06-25.41,1.45S536.16,316.86,543.57,309.44Z" transform="translate(-525.63 -0.023)" fill="#edb392"/>
      <path id="Path_55" data-name="Path 55" d="M568.1,148.25c-25.87-19.23-68.52,27.27-67.82,39.5s33.48,39.35,44.69,39.38C558.656,227.15,590.116,164.62,568.1,148.25Z" transform="translate(-398.806 -0.023)" fill="#9646b2"/>
    </g>
    <path id="Path_169" data-name="Path 169" d="M641.3,80.07,503.1,119.653V81.02l137.63-39.412,20.479,14.23Z" transform="translate(1607.211 1443.69)" fill="#60346f"/>
    <path id="Path_170" data-name="Path 170" d="M503.1,81.02,363.365,41,345,55.106l16.764,24.071L503.1,119.653Z" transform="translate(1607.211 1443.69)" fill="#60346f"/>
    <line id="Line_33" data-name="Line 33" y2="760.286" transform="translate(2110.313 1502.074)" fill="none"/>
    <path id="Path_171" data-name="Path 171" d="M503.1,120.271,364.71,159.9,345,146.042l14.253-23.207L503.1,81.638Z" transform="translate(1607.211 1443.69)" fill="#7d3297"/>
    <path id="Path_172" data-name="Path 172" d="M643.208,121.762,503.1,81.638v38.633L641.5,159.9l19.71-14.581Z" transform="translate(1607.211 1443.69)" fill="#9646b2"/>
  </g>
</svg>
