<svg width="24" height="24" viewBox="0 0 24 24" fill="none" xmlns="http://www.w3.org/2000/svg">
<path fill-rule="evenodd" clip-rule="evenodd" d="M18 12C18 12.4142 17.6642 12.75 17.25 12.75H8.5605L11.781 15.969C11.9707 16.1587 12.0448 16.4352 11.9754 16.6944C11.9059 16.9535 11.7035 17.1559 11.4444 17.2254C11.1852 17.2948 10.9087 17.2207 10.719 17.031L6.219 12.531C6.07794 12.3903 5.99866 12.1992 5.99866 12C5.99866 11.8008 6.07794 11.6097 6.219 11.469L10.719 6.969C11.0123 6.67574 11.4877 6.67574 11.781 6.969C12.0743 7.26226 12.0743 7.73774 11.781 8.031L8.5605 11.25H17.25C17.6642 11.25 18 11.5858 18 12Z" fill="white"/>
</svg>
