<svg id="collection" xmlns="http://www.w3.org/2000/svg" width="24" height="24" viewBox="0 0 24 24">
  <path id="collection-2" data-name="collection" d="M21.75,21H2.25A2.253,2.253,0,0,1,0,18.75V8.25A2.253,2.253,0,0,1,2.25,6h19.5A2.253,2.253,0,0,1,24,8.25v10.5A2.253,2.253,0,0,1,21.75,21ZM2.25,7.5a.751.751,0,0,0-.75.751v10.5a.751.751,0,0,0,.75.751h19.5a.751.751,0,0,0,.75-.751V8.25a.751.751,0,0,0-.75-.751Zm18-3H3.75a.75.75,0,1,1,0-1.5h16.5a.75.75,0,0,1,0,1.5Zm-3-3H6.75a.75.75,0,0,1,0-1.5h10.5a.75.75,0,0,1,0,1.5Z" transform="translate(0 0.75)" fill="#6a6e73"/>
</svg>
