<svg id="Layer_1" data-name="Layer 1" xmlns="http://www.w3.org/2000/svg" xmlns:xlink="http://www.w3.org/1999/xlink" viewBox="0 0 763.57 229.71"><defs><style>.cls-1{fill:url(#linear-gradient);}.cls-2{opacity:0.25;}</style><linearGradient id="linear-gradient" x1="1.59" y1="114.85" x2="334.13" y2="114.85" gradientUnits="userSpaceOnUse"><stop offset="0" stop-color="#694bce"/><stop offset="1" stop-color="#7d3297"/></linearGradient></defs><path class="cls-1" d="M330.79,138.14,299.46,43.56a58,58,0,0,0-55.18-39.9H93.92A58.1,58.1,0,0,0,39.55,41.27l-9,23.78a46.19,46.19,0,0,0-2.26,24.31l.94,5.33A6.72,6.72,0,0,1,29,98.16h0a6.78,6.78,0,0,1-2,2.85l-4.88,4A46.14,46.14,0,0,0,8.23,124.36l-2.09,5.56A71,71,0,0,0,72.64,226c1.46,0,2.93,0,4.4-.13a71.13,71.13,0,0,0,51.71-27.33l54.94-71.13L205,183.63a66.9,66.9,0,0,0,125.78-45.49Zm-204.22-6.9L107.79,156c-.32.41-.58.84-.86,1.25L95.17,172.53a28.57,28.57,0,0,1-42.73,2.64,28.59,28.59,0,0,1-6.52-30.27l7.92-21,69-.17A4.71,4.71,0,0,1,126.57,131.24Zm39.37-52a4.69,4.69,0,0,1-3.73,1.87l-92.34.22,9.45-25.06a15.6,15.6,0,0,1,14.6-10.1h87.61a4.7,4.7,0,0,1,3.75,7.54ZM278.52,181.07a24.39,24.39,0,0,1-33.41-13l-17.77-45.81h6.54c11.53,0,21.34-9,21.75-20.48a21.26,21.26,0,0,0-21.24-22H218.85L244.3,46.17a15.57,15.57,0,0,1,14.79,10.71L291,151.51A24.47,24.47,0,0,1,278.52,181.07Z"/><polygon class="cls-2" points="231.32 79.78 196.65 160.35 183.69 127.46 218.85 79.78 231.32 79.78"/><path d="M424.9,59.51a19.14,19.14,0,0,0-10.95-7,19.7,19.7,0,0,0,9.49-7.42,20.4,20.4,0,0,0,3.42-11.69q0-12.16-8.51-18.46t-24.94-6.3H361.76V99h35.13q15.38-.13,23.7-6.83t8.32-19.74A20.76,20.76,0,0,0,424.9,59.51Zm-44.53-35.8h13q7.68,0,11.26,2.7t3.56,8.84q0,11-14.08,11.23H380.37ZM406.6,80.89Q402.9,84,396.33,84h-16V59.64h17.07q12.85.2,12.85,12.59A10.73,10.73,0,0,1,406.6,80.89Z"/><path d="M481.27,31.84V79.42q-3.4,6.35-12.53,6.34-9.56,0-9.56-10.5V31.84H441.25v44q.12,12,5.81,18.19t16.47,6.21q11.73,0,18.37-8.07l.49,6.83h16.88V31.84Z"/><path d="M552.52,3.66V37.92a20.57,20.57,0,0,0-16.2-7.32q-12.23,0-19.26,9.31t-7,25q0,16.64,7.17,26a22.8,22.8,0,0,0,19,9.34,21.11,21.11,0,0,0,17.25-8.39l.86,7.15h16.2V3.66Zm0,75.08q-3.42,7-11.73,7a10.71,10.71,0,0,1-9.55-5q-3.3-5-3.3-14.48,0-21.06,13-21.07c5.49,0,9.37,2.34,11.6,7Z"/><path d="M626.93,31.84l-.75,6.33Q620,30.59,609,30.6q-12.47,0-19.82,9.43t-7.36,24.88v.75q0,15.63,7.48,25.1a23.76,23.76,0,0,0,19.57,9.47q10.13,0,16.32-7v3.6q0,7-4,10.83c-2.65,2.54-6.34,3.81-11.11,3.81a21,21,0,0,1-16.25-7.5l-7.94,10.92a25.43,25.43,0,0,0,10.61,7.6,36.88,36.88,0,0,0,14.4,3,39.6,39.6,0,0,0,17-3.41,25.79,25.79,0,0,0,11.27-9.93,28.72,28.72,0,0,0,4-15.33V31.84Zm-1.75,47.77q-3.52,6.15-11.72,6.15a11.65,11.65,0,0,1-10.06-5.18q-3.66-5.2-3.65-14.33,0-10.5,3.68-15.79a11.74,11.74,0,0,1,10.15-5.28q8,0,11.6,6.15Z"/><path d="M715.47,63.93q0-16-7.91-24.65T685.88,30.6a31.09,31.09,0,0,0-16.35,4.31,28.69,28.69,0,0,0-11.08,12.28,40.55,40.55,0,0,0-3.91,18.1V67q0,15.08,9.28,24.14t24,9.07A35.84,35.84,0,0,0,703.13,97a26.93,26.93,0,0,0,10.92-8.91l-8.82-9.86q-5.82,7.5-16.19,7.5a15.81,15.81,0,0,1-11.07-4,16.65,16.65,0,0,1-5.25-10.54h42.75ZM697.85,59H672.91q.93-6.74,4.25-10.35a11.2,11.2,0,0,1,8.65-3.62q5.72,0,8.81,3.28t3.23,9.26Z"/><path d="M754,85.46q-4,0-5.45-1.62c-1-1.07-1.43-2.85-1.43-5.34V45h11.48V31.84H747.13V15.33H729.19V31.84h-9.8V45h9.8V81.18q.38,19,19.24,19a36.77,36.77,0,0,0,10.86-1.62V85A28.63,28.63,0,0,1,754,85.46Z"/><path d="M398.43,181.93v6.45H422.7v23.33a18.3,18.3,0,0,1-6.83,4.77,41.8,41.8,0,0,1-16.94,3.11,26.58,26.58,0,0,1-15.05-4.35A27.89,27.89,0,0,1,373.83,203a44.58,44.58,0,0,1-3.51-18.23V174.07q0-16.4,7.39-25.41t20-9q10.37,0,16.78,5.14t8.1,15.09h7.64c-1.08-8.32-4.45-14.83-10.12-19.58S407,133.2,397.69,133.2q-16,0-25.5,10.9t-9.5,29.7v11.41a48.77,48.77,0,0,0,4.59,21.35A34,34,0,0,0,380.06,221,35.22,35.22,0,0,0,398.93,226a53.86,53.86,0,0,0,19-3.16q8.46-3.16,12.44-8.81V181.93Z"/><path d="M498.53,209.47V177.7c-.13-6.7-2.34-11.93-6.67-15.67s-10.23-5.62-17.72-5.62q-10.86,0-18.3,5.87t-7.45,13.87l7.45.06q0-5.58,5.09-9.56t12.84-4q8.5,0,12.94,4.13t4.44,11.32v7.63H477.68q-14.6,0-22.74,5.7A18,18,0,0,0,446.77,207a17.58,17.58,0,0,0,6,13.65q6,5.4,15.67,5.4a30.71,30.71,0,0,0,12.82-2.75,26.08,26.08,0,0,0,10-7.86,35.06,35.06,0,0,0,1.42,9.37h7.95v-.75Q498.54,219.22,498.53,209.47Zm-7.38-3.23a21.3,21.3,0,0,1-8.54,9.63,24.91,24.91,0,0,1-13.31,3.6c-4.46,0-8.1-1.24-10.89-3.72a12,12,0,0,1-4.19-9.37q0-6.9,6.27-10.84t17.37-4.07h13.29Z"/><path d="M590.12,156.41a26.62,26.62,0,0,0-13.28,3.39,25.1,25.1,0,0,0-9.61,9.65q-4.29-13-20.17-13a25.6,25.6,0,0,0-12.41,3,24.89,24.89,0,0,0-9.32,9.13l-.24-10.93H518V224.8h7.45v-46q2.42-7.89,7.45-11.89a18.71,18.71,0,0,1,12-4q8.31,0,12.31,4.25T561.27,180v44.8h7.44V180.37a18.33,18.33,0,0,1,6.15-12.31,19.73,19.73,0,0,1,13.53-5.19q8.63,0,12.44,4.34c2.55,2.9,3.83,7.35,3.88,13.35V224.8h7.45V180Q611.71,156.42,590.12,156.41Z"/><path d="M682.16,191.73v-4.16q0-14.46-7.17-22.81t-19.4-8.35a25.8,25.8,0,0,0-14.52,4.45,29.94,29.94,0,0,0-10.46,12.19,39.54,39.54,0,0,0-3.75,17.44v2.66a36.57,36.57,0,0,0,3.85,16.91,28.73,28.73,0,0,0,10.77,11.77A29.15,29.15,0,0,0,657,226q15.57,0,23.77-11.85l-4.65-3.54a23.39,23.39,0,0,1-8.29,6.95,24.18,24.18,0,0,1-10.52,2.17,20.79,20.79,0,0,1-16.47-7.6q-6.56-7.59-6.55-19v-1.42Zm-40.68-22.84a18.56,18.56,0,0,1,14.11-6.14,17.13,17.13,0,0,1,13.65,6.07q5.22,6.09,5.53,15.77v.8H634.5Q635.73,175,641.48,168.89Z"/><path d="M722.92,156.41q-13,0-18.93,11.92l-.12-10.68h-7.26V224.8H704V178.7q2.07-7.39,6.86-11.27a18.13,18.13,0,0,1,11.77-3.87,27.69,27.69,0,0,1,5,.43l.19-6.76A12.15,12.15,0,0,0,722.92,156.41Z"/></svg>