<svg id="calendar2-range" xmlns="http://www.w3.org/2000/svg" width="24" height="24" viewBox="0 0 24 24">
  <path id="Combined_Shape" data-name="Combined Shape" d="M3,24a3,3,0,0,1-3-3V4.5a3,3,0,0,1,3-3H4.5V.75A.75.75,0,0,1,6,.75V1.5H18V.75a.75.75,0,0,1,1.5,0V1.5H21a3,3,0,0,1,3,3V21a3,3,0,0,1-3,3ZM1.5,4.5V21A1.5,1.5,0,0,0,3,22.5H21A1.5,1.5,0,0,0,22.5,21V13.5H15a1.5,1.5,0,1,1,0-3h7.5v-6A1.5,1.5,0,0,0,21,3H3A1.5,1.5,0,0,0,1.5,4.5ZM1.5,18V15h6a1.5,1.5,0,0,1,0,3Zm3-9.751a.75.75,0,0,1-.75-.75V6a.75.75,0,0,1,.75-.75h15a.751.751,0,0,1,.75.75V7.5a.75.75,0,0,1-.75.75Z" transform="translate(0 0)" fill="#6a6e73"/>
</svg>
