<svg id="calendar2-range-fill" xmlns="http://www.w3.org/2000/svg" width="24" height="24" viewBox="0 0 24 24">
  <path id="calendar2-range-fill-2" data-name="calendar2-range-fill" d="M21,24H3a3,3,0,0,1-3-3V4.5a3,3,0,0,1,3-3H4.5V.75A.75.75,0,0,1,6,.75V1.5H18V.75a.75.75,0,0,1,1.5,0V1.5H21a3,3,0,0,1,3,3V21A3,3,0,0,1,21,24ZM1.5,15v3h6a1.5,1.5,0,1,0,0-3ZM15,10.5a1.5,1.5,0,1,0,0,3h7.5v-3ZM3.818,4.5A.787.787,0,0,0,3,5.25v1.5a.787.787,0,0,0,.818.75H20.183A.787.787,0,0,0,21,6.75V5.25a.788.788,0,0,0-.819-.75Z" transform="translate(0 0)" fill="#684ace"/>
</svg>
