<svg id="Layer_1" data-name="Layer 1" xmlns="http://www.w3.org/2000/svg" xmlns:xlink="http://www.w3.org/1999/xlink" viewBox="0 0 268.23 180.3"><defs><style>.cls-1{fill:url(#linear-gradient);}.cls-2{opacity:0.25;}</style><linearGradient id="linear-gradient" x1="2.46" y1="90.15" x2="265.76" y2="90.15" gradientUnits="userSpaceOnUse"><stop offset="0" stop-color="#694bce"/><stop offset="1" stop-color="#7d3297"/></linearGradient></defs><path class="cls-1" d="M263.12,108.59,238.31,33.7A45.92,45.92,0,0,0,194.62,2.11H75.56a46,46,0,0,0-43,29.78l-7.1,18.83A36.57,36.57,0,0,0,23.63,70l.75,4.22a5.4,5.4,0,0,1-.25,2.76h0a5.36,5.36,0,0,1-1.6,2.25l-3.86,3.18a36.5,36.5,0,0,0-11,15.31l-1.66,4.4a56.26,56.26,0,0,0,52.66,76.11c1.15,0,2.31,0,3.48-.11a56.25,56.25,0,0,0,40.94-21.64l43.5-56.31,16.89,44.48a53,53,0,0,0,99.59-36Zm-161.7-5.46L86.54,122.77c-.24.32-.45.66-.67,1l-9.32,12.06a22.62,22.62,0,0,1-33.83,2.09,22.66,22.66,0,0,1-5.16-24l6.27-16.65,54.61-.13A3.73,3.73,0,0,1,101.42,103.13ZM132.59,62a3.68,3.68,0,0,1-3,1.47l-73.11.18L64,43.77a12.36,12.36,0,0,1,11.56-8h69.37a3.72,3.72,0,0,1,3,6Zm89.14,80.62a19.3,19.3,0,0,1-26.45-10.27L181.21,96h5.17A17.09,17.09,0,0,0,203.6,79.82a16.82,16.82,0,0,0-16.81-17.44h-12.3l20.14-26.61a12.33,12.33,0,0,1,11.72,8.48l25.24,74.93A19.38,19.38,0,0,1,221.73,142.58Z"/><polygon class="cls-2" points="184.36 62.38 156.9 126.17 146.64 100.13 174.49 62.38 184.36 62.38"/></svg>