<svg xmlns="http://www.w3.org/2000/svg" viewBox="0 0 180 180"><defs><linearGradient id="Gradient-0" x1="8.3" y1="67.5" x2="126.8" y2="67.5" gradientUnits="userSpaceOnUse"><stop offset="0" stop-color="#694acf"/><stop offset="1" stop-color="#7d3396"/></linearGradient></defs><style>
@keyframes a0_t { 0% { transform: translate(0px,0px); animation-timing-function: cubic-bezier(.3,0,.7,1); } 24.433% { transform: translate(0px,25px); animation-timing-function: cubic-bezier(.3,0,.7,1); } 50% { transform: translate(0px,0px); animation-timing-function: cubic-bezier(.3,0,.7,1); } 74.433% { transform: translate(0px,25px); animation-timing-function: cubic-bezier(.3,0,.7,1); } 100% { transform: translate(0px,0px); } }
@keyframes a1_t { 0% { transform: rotate(-1deg) scale(1.3,1.3); animation-timing-function: cubic-bezier(.3,0,.7,1); } 14.433% { transform: rotate(1deg) scale(1.3,1.3); animation-timing-function: cubic-bezier(.3,0,.7,1); } 32.767% { transform: rotate(-1deg) scale(1.3,1.3); animation-timing-function: cubic-bezier(.3,0,.7,1); } 47.233% { transform: rotate(1deg) scale(1.3,1.3); animation-timing-function: cubic-bezier(.3,0,.7,1); } 65.567% { transform: rotate(-1deg) scale(1.3,1.3); animation-timing-function: cubic-bezier(.3,0,.7,1); } 80% { transform: rotate(1deg) scale(1.3,1.3); animation-timing-function: cubic-bezier(.3,0,.7,1); } 98.333% { transform: rotate(-1deg) scale(1.3,1.3); } 100% { transform: rotate(-1deg) scale(1.3,1.3); } }
</style><g style="animation: 5s linear infinite both a0_t;"><g transform="translate(0,0) rotate(-1) scale(1.3333,1.3333)" style="animation: 5s linear infinite both a1_t;"><g><g><path fill="url(#Gradient-0)" d="M125.6 75.8c0 0-11.1-33.7-11.1-33.7c-2.8-8.5-10.8-14.2-19.7-14.2c0 0-53.6 0-53.6 0c-8.6 0-16.3 5.3-19.3 13.4c0 0-3.2 8.5-3.2 8.5c-1.1 2.7-1.3 5.7-0.8 8.6c0 0 .3 1.9 .3 1.9c.1 .4 0 .9-0.1 1.3c-0.2 .4-0.4 .7-0.7 1c0 0-1.8 1.4-1.8 1.4c-2.2 1.8-3.9 4.2-4.9 6.9c0 0-0.8 2-0.8 2c-2.9 7.8-1.8 16.5 2.9 23.3c4.7 6.9 12.5 10.9 20.8 10.9c.5 0 1.1 0 1.6 0c7.2-0.5 14-4 18.4-9.8c0 0 19.6-25.3 19.6-25.3c0 0 7.6 20 7.6 20c4.9 11.8 18.2 17.7 30.2 13.3c12-4.3 18.4-17.3 14.6-29.5c0 0 0 0 0 0Zm-72.7-2.5c0 0-6.7 8.9-6.7 8.9c-0.1 .1-0.2 .3-0.3 .4c0 0-4.2 5.4-4.2 5.4c-1.8 2.3-4.5 3.8-7.4 3.9c-2.9 .2-5.8-0.9-7.8-2.9c-2.9-2.8-3.8-7.1-2.4-10.8c0 0 2.9-7.5 2.9-7.5c0 0 24.5-0.1 24.5-0.1c.7 0 1.2 .4 1.5 1c.3 .5 .3 1.2-0.1 1.7c0 0 0 0 0 0Zm14-18.5c-0.3 .4-0.8 .7-1.4 .7c0 0-32.9 .1-32.9 .1c0 0 3.4-9 3.4-9c.9-2.1 2.9-3.6 5.2-3.6c0 0 31.3 0 31.3 0c.6 0 1.2 .4 1.5 .9c.3 .6 .2 1.3-0.2 1.8c0 0-6.9 9.1-6.9 9.1Zm40.1 36.3c-2.2 1.1-4.7 1.2-7 .3c-2.2-0.9-4-2.7-4.9-4.9c0 0-6.3-16.4-6.3-16.4c0 0 2.3 0 2.3 0c4.1 .1 7.5-3.1 7.8-7.3c0-2-0.7-4-2.2-5.5c-1.4-1.5-3.4-2.3-5.4-2.3c0 0-5.5 0-5.5 0c0 0 9-12 9-12c2.4 0 4.5 1.6 5.3 3.8c0 0 11.4 33.8 11.4 33.8c1.3 4.1-0.6 8.6-4.5 10.5c0 0 0 0 0 0Z"/></g><g><path d="M90.2 55c0 0-12.4 28.7-12.4 28.7c0 0-4.6-11.7-4.6-11.7c0 0 12.5-17 12.5-17c0 0 4.5 0 4.5 0Z" fill-opacity=".25"/></g></g></g></g></svg>