<svg id="house-fill" xmlns="http://www.w3.org/2000/svg" width="24" height="24" viewBox="0 0 24 24">
  <path id="Combined_Shape" data-name="Combined Shape" d="M4.5,20.689a2.253,2.253,0,0,1-2.25-2.25V12.128l9-9,9,9v6.311A2.252,2.252,0,0,1,18,20.689ZM21.22,11.47,11.251,1.5,1.282,11.47A.751.751,0,0,1,.22,10.409L10.191.439a1.5,1.5,0,0,1,2.12,0l3.44,3.439V1.939a.751.751,0,0,1,.75-.75H18a.751.751,0,0,1,.75.75V6.878l3.532,3.531A.751.751,0,0,1,21.22,11.47Z" transform="translate(0.749 1.811)" fill="#684ace"/>
</svg>
