<svg width="24" height="24" viewBox="0 0 24 24" fill="none" xmlns="http://www.w3.org/2000/svg">
<path fill-rule="evenodd" clip-rule="evenodd" d="M6.969 2.469C7.1097 2.32794 7.30076 2.24866 7.5 2.24866C7.69924 2.24866 7.89029 2.32794 8.031 2.469L17.031 11.469C17.1721 11.6097 17.2513 11.8008 17.2513 12C17.2513 12.1992 17.1721 12.3903 17.031 12.531L8.031 21.531C7.73773 21.8243 7.26226 21.8243 6.969 21.531C6.67573 21.2377 6.67573 20.7623 6.969 20.469L15.4395 12L6.969 3.531C6.82794 3.39029 6.74866 3.19924 6.74866 3C6.74866 2.80076 6.82794 2.6097 6.969 2.469Z" fill="#fd453a"/>
</svg>
