<svg id="gear" xmlns="http://www.w3.org/2000/svg" width="24" height="24" viewBox="0 0 24 24">
  <path id="Combined_Shape" data-name="Combined Shape" d="M9.305,21.985l-.14-.479a1.31,1.31,0,0,0-1.883-.78l-.438.238a2.814,2.814,0,0,1-1.356.357,2.844,2.844,0,0,1-2.42-1.41,2.729,2.729,0,0,1-.035-2.757l.24-.438a1.309,1.309,0,0,0-.78-1.882l-.478-.141a2.809,2.809,0,0,1,0-5.388l.478-.14a1.31,1.31,0,0,0,.78-1.883l-.239-.438a2.725,2.725,0,0,1,.033-2.755A2.848,2.848,0,0,1,5.489,2.676a2.816,2.816,0,0,1,1.355.356l.438.24a1.314,1.314,0,0,0,.626.159,1.311,1.311,0,0,0,1.256-.94l.14-.478a2.809,2.809,0,0,1,5.388,0l.141.478a1.309,1.309,0,0,0,1.882.78l.438-.239a2.813,2.813,0,0,1,1.355-.357,2.847,2.847,0,0,1,2.422,1.412,2.727,2.727,0,0,1,.034,2.755l-.24.438a1.31,1.31,0,0,0,.78,1.883l.479.14a2.809,2.809,0,0,1,0,5.388l-.479.141a1.309,1.309,0,0,0-.78,1.882l.238.438a2.725,2.725,0,0,1-.032,2.755,2.846,2.846,0,0,1-2.423,1.413,2.809,2.809,0,0,1-1.355-.356l-.438-.24a1.314,1.314,0,0,0-.626-.159,1.309,1.309,0,0,0-1.255.94l-.141.479a2.809,2.809,0,0,1-5.388,0Zm-.322-2.7a2.8,2.8,0,0,1,1.62,1.8l.14.479a1.309,1.309,0,0,0,2.511,0l.141-.477a2.808,2.808,0,0,1,4.039-1.674l.436.238a1.295,1.295,0,0,0,1.76-.491,1.272,1.272,0,0,0,.017-1.285l-.239-.436A2.81,2.81,0,0,1,21.082,13.4l.479-.141a1.309,1.309,0,0,0,0-2.511l-.477-.14a2.809,2.809,0,0,1-1.674-4.038l.238-.438a1.272,1.272,0,0,0-.016-1.285A1.328,1.328,0,0,0,18.5,4.183a1.311,1.311,0,0,0-.631.166l-.436.24A2.81,2.81,0,0,1,13.4,2.917l-.141-.479a1.309,1.309,0,0,0-2.511,0l-.14.479A2.81,2.81,0,0,1,6.565,4.589l-.438-.238a1.295,1.295,0,0,0-1.76.491,1.271,1.271,0,0,0-.017,1.284l.24.438A2.809,2.809,0,0,1,2.917,10.6l-.479.141a1.309,1.309,0,0,0,0,2.511l.479.14a2.81,2.81,0,0,1,1.672,4.041l-.238.436a1.272,1.272,0,0,0,.016,1.285,1.328,1.328,0,0,0,1.129.658,1.311,1.311,0,0,0,.631-.166l.438-.239a2.812,2.812,0,0,1,2.418-.129Zm-1.2-4.847A4.869,4.869,0,1,1,12,16.868,4.884,4.884,0,0,1,7.782,14.433ZM8.63,12A3.369,3.369,0,1,0,12,8.631,3.373,3.373,0,0,0,8.63,12Z" transform="translate(0.001 0.001)" fill="#6a6e73"/>
</svg>
