<svg id="gear-fill" xmlns="http://www.w3.org/2000/svg" width="24" height="24" viewBox="0 0 24 24">
  <path id="gear-fill-2" data-name="gear-fill" d="M12,24a2.155,2.155,0,0,1-2.107-1.575l-.15-.51a2.2,2.2,0,0,0-3.157-1.308l-.467.253a2.2,2.2,0,0,1-1.06.279,2.226,2.226,0,0,1-1.893-1.1,2.133,2.133,0,0,1-.027-2.156l.255-.465a2.2,2.2,0,0,0-1.308-3.157l-.51-.15a2.2,2.2,0,0,1,0-4.215l.51-.15A2.2,2.2,0,0,0,3.393,6.585l-.254-.467a2.131,2.131,0,0,1,.026-2.154,2.227,2.227,0,0,1,1.9-1.1,2.2,2.2,0,0,1,1.06.279l.465.255a2.2,2.2,0,0,0,1.051.268A2.2,2.2,0,0,0,9.743,2.085l.15-.51a2.2,2.2,0,0,1,4.215,0l.15.51a2.2,2.2,0,0,0,2.106,1.576,2.2,2.2,0,0,0,1.051-.268l.466-.254a2.2,2.2,0,0,1,1.06-.279,2.226,2.226,0,0,1,1.893,1.1,2.135,2.135,0,0,1,.027,2.156l-.255.465a2.2,2.2,0,0,0,1.308,3.157l.51.15a2.2,2.2,0,0,1,0,4.215l-.51.15a2.2,2.2,0,0,0-1.308,3.157l.253.466a2.132,2.132,0,0,1-.026,2.155,2.227,2.227,0,0,1-1.895,1.1,2.2,2.2,0,0,1-1.06-.278l-.465-.255a2.2,2.2,0,0,0-3.157,1.308l-.15.51A2.155,2.155,0,0,1,12,24ZM12,7.6A4.4,4.4,0,1,0,16.394,12,4.4,4.4,0,0,0,12,7.6Z" transform="translate(0 0)" fill="#684ace"/>
</svg>
