<?xml version="1.0" encoding="utf-8"?>
<svg xmlns="http://www.w3.org/2000/svg" xmlns:xlink="http://www.w3.org/1999/xlink" style="margin: auto; display: block; shape-rendering: auto;" width="171px" height="171px" viewBox="0 0 100 100" preserveAspectRatio="xMidYMid">
<g transform="rotate(0 50 50)">
  <rect x="47.5" y="29" rx="2.5" ry="3.6" width="5" height="12" fill="#c2c2c2">
    <animate attributeName="opacity" values="1;0" keyTimes="0;1" dur="0.7142857142857142s" begin="-0.6428571428571428s" repeatCount="indefinite"></animate>
  </rect>
</g><g transform="rotate(36 50 50)">
  <rect x="47.5" y="29" rx="2.5" ry="3.6" width="5" height="12" fill="#c2c2c2">
    <animate attributeName="opacity" values="1;0" keyTimes="0;1" dur="0.7142857142857142s" begin="-0.5714285714285714s" repeatCount="indefinite"></animate>
  </rect>
</g><g transform="rotate(72 50 50)">
  <rect x="47.5" y="29" rx="2.5" ry="3.6" width="5" height="12" fill="#c2c2c2">
    <animate attributeName="opacity" values="1;0" keyTimes="0;1" dur="0.7142857142857142s" begin="-0.49999999999999994s" repeatCount="indefinite"></animate>
  </rect>
</g><g transform="rotate(108 50 50)">
  <rect x="47.5" y="29" rx="2.5" ry="3.6" width="5" height="12" fill="#c2c2c2">
    <animate attributeName="opacity" values="1;0" keyTimes="0;1" dur="0.7142857142857142s" begin="-0.4285714285714285s" repeatCount="indefinite"></animate>
  </rect>
</g><g transform="rotate(144 50 50)">
  <rect x="47.5" y="29" rx="2.5" ry="3.6" width="5" height="12" fill="#c2c2c2">
    <animate attributeName="opacity" values="1;0" keyTimes="0;1" dur="0.7142857142857142s" begin="-0.3571428571428571s" repeatCount="indefinite"></animate>
  </rect>
</g><g transform="rotate(180 50 50)">
  <rect x="47.5" y="29" rx="2.5" ry="3.6" width="5" height="12" fill="#c2c2c2">
    <animate attributeName="opacity" values="1;0" keyTimes="0;1" dur="0.7142857142857142s" begin="-0.2857142857142857s" repeatCount="indefinite"></animate>
  </rect>
</g><g transform="rotate(216 50 50)">
  <rect x="47.5" y="29" rx="2.5" ry="3.6" width="5" height="12" fill="#c2c2c2">
    <animate attributeName="opacity" values="1;0" keyTimes="0;1" dur="0.7142857142857142s" begin="-0.21428571428571425s" repeatCount="indefinite"></animate>
  </rect>
</g><g transform="rotate(252 50 50)">
  <rect x="47.5" y="29" rx="2.5" ry="3.6" width="5" height="12" fill="#c2c2c2">
    <animate attributeName="opacity" values="1;0" keyTimes="0;1" dur="0.7142857142857142s" begin="-0.14285714285714285s" repeatCount="indefinite"></animate>
  </rect>
</g><g transform="rotate(288 50 50)">
  <rect x="47.5" y="29" rx="2.5" ry="3.6" width="5" height="12" fill="#c2c2c2">
    <animate attributeName="opacity" values="1;0" keyTimes="0;1" dur="0.7142857142857142s" begin="-0.07142857142857142s" repeatCount="indefinite"></animate>
  </rect>
</g><g transform="rotate(324 50 50)">
  <rect x="47.5" y="29" rx="2.5" ry="3.6" width="5" height="12" fill="#c2c2c2">
    <animate attributeName="opacity" values="1;0" keyTimes="0;1" dur="0.7142857142857142s" begin="0s" repeatCount="indefinite"></animate>
  </rect>
</g>
<!-- [ldio] generated by https://loading.io/ --></svg>