<svg width="24" height="24" viewBox="0 0 24 24" fill="none" xmlns="http://www.w3.org/2000/svg">
<path fill-rule="evenodd" clip-rule="evenodd" d="M6.969 6.96888C7.1097 6.82781 7.30076 6.74854 7.5 6.74854C7.69924 6.74854 7.89029 6.82781 8.031 6.96888L12 10.9394L15.969 6.96888C16.1587 6.77917 16.4352 6.70508 16.6944 6.77452C16.9535 6.84395 17.1559 7.04637 17.2254 7.30552C17.2948 7.56466 17.2207 7.84117 17.031 8.03088L13.0605 11.9999L17.031 15.9689C17.2207 16.1586 17.2948 16.4351 17.2254 16.6942C17.1559 16.9534 16.9535 17.1558 16.6944 17.2252C16.4352 17.2947 16.1587 17.2206 15.969 17.0309L12 13.0604L8.031 17.0309C7.84129 17.2206 7.56478 17.2947 7.30564 17.2252C7.04649 17.1558 6.84408 16.9534 6.77464 16.6942C6.7052 16.4351 6.77929 16.1586 6.969 15.9689L10.9395 11.9999L6.969 8.03088C6.82794 7.89017 6.74866 7.69912 6.74866 7.49988C6.74866 7.30063 6.82794 7.10958 6.969 6.96888Z" fill="#020002"/>
</svg>
