<svg id="file-earmark-code-fill" xmlns="http://www.w3.org/2000/svg" width="24" height="24" viewBox="0 0 24 24">
  <path id="file-earmark-code-fill-2" data-name="file-earmark-code-fill" d="M15,24H3a3,3,0,0,1-3-3V3A3,3,0,0,1,3,0h7.94A1.51,1.51,0,0,1,12,.439L17.561,6A1.51,1.51,0,0,1,18,7.061V21A3,3,0,0,1,15,24ZM10.5,11.249a.751.751,0,0,0-.53,1.282L12.44,15l-2.47,2.469a.751.751,0,1,0,1.062,1.062l3-3a.75.75,0,0,0,0-1.062l-3-3A.749.749,0,0,0,10.5,11.249Zm-3,0a.759.759,0,0,0-.532.22l-3,3a.75.75,0,0,0,0,1.062l3,3a.751.751,0,1,0,1.062-1.062L5.56,15l2.47-2.47a.751.751,0,0,0-.53-1.282Zm3.749-9v3a1.5,1.5,0,0,0,1.5,1.5h3Z" transform="translate(3 0)" fill="#000000"/>
</svg>
