<svg id="mailbox2" xmlns="http://www.w3.org/2000/svg" width="24" height="24" viewBox="0 0 24 24">
  <path id="Combined_Shape" data-name="Combined Shape" d="M1.5,16.5A1.5,1.5,0,0,1,0,15V6A6.007,6.007,0,0,1,6,0H18a6.007,6.007,0,0,1,6,6v9a1.5,1.5,0,0,1-1.5,1.5ZM12,6v9H22.5V6A4.505,4.505,0,0,0,18,1.5H9.969A5.983,5.983,0,0,1,12,6Zm-5.135.23.013.005a1.278,1.278,0,0,0,.417.133.161.161,0,0,0,.151-.081A.561.561,0,0,0,7.5,6a1.5,1.5,0,1,0-3,0c0,.255.063.368.205.368a1.288,1.288,0,0,0,.418-.133A2.251,2.251,0,0,1,6,6,2.252,2.252,0,0,1,6.864,6.23Zm12.105,3.3L17.69,8.25H13.5V6.75H21a.75.75,0,0,1,.751.75V9A.75.75,0,0,1,21,9.75H19.5A.748.748,0,0,1,18.969,9.531Z" transform="translate(0 4.5)" fill="#000000"/>
</svg>
