<svg id="emoji-heart-eyes-fill" xmlns="http://www.w3.org/2000/svg" width="24" height="24" viewBox="0 0 24 24">
  <path id="emoji-heart-eyes-fill-2" data-name="emoji-heart-eyes-fill" d="M12,24A12,12,0,0,1,3.515,3.515,12,12,0,1,1,20.485,20.485,11.922,11.922,0,0,1,12,24ZM6.751,15a.75.75,0,0,0-.65,1.124A6.768,6.768,0,0,0,11.945,19.5h.005a6.768,6.768,0,0,0,5.845-3.375.75.75,0,0,0-.823-1.1l-.007,0-.025.005-.1.023c-.532.12-1.091.233-1.663.337a20.561,20.561,0,0,1-3.228.363,20.592,20.592,0,0,1-3.228-.363c-.416-.074-.848-.16-1.285-.254l-.378-.083-.1-.023-.025-.007H6.923A.754.754,0,0,0,6.751,15ZM15.4,6A1.854,1.854,0,0,0,13.7,7.09C13.373,7.8,13.17,9.371,15.438,12c2.78-.987,4.29-2.453,4.037-3.922A1.79,1.79,0,0,0,17.735,6.6a1.627,1.627,0,0,0-.867.25A1.63,1.63,0,0,0,15.4,6Zm-9.134.6a1.791,1.791,0,0,0-1.74,1.479C4.273,9.547,5.782,11.013,8.562,12c2.269-2.628,2.067-4.2,1.744-4.91A1.854,1.854,0,0,0,8.6,6a1.626,1.626,0,0,0-1.466.849A1.628,1.628,0,0,0,6.266,6.6Z" transform="translate(0 0)" fill="#6a6e73"/>
</svg>
