<svg id="person-lines-fill" xmlns="http://www.w3.org/2000/svg" width="24" height="24" viewBox="0 0 24 24">
  <path id="person-lines-fill-2" data-name="person-lines-fill" d="M16.5,18H1.5A1.477,1.477,0,0,1,0,16.5a5.42,5.42,0,0,1,1.688-3.562A7.567,7.567,0,0,1,4.43,11.227,13.134,13.134,0,0,1,9,10.5a13.134,13.134,0,0,1,4.57.727,7.567,7.567,0,0,1,2.742,1.711A5.42,5.42,0,0,1,18,16.5,1.477,1.477,0,0,1,16.5,18Zm6.75-1.5h-3a.75.75,0,0,1,0-1.5h3a.75.75,0,1,1,0,1.5Zm0-4.5h-3a.75.75,0,0,1,0-1.5h3a.75.75,0,1,1,0,1.5ZM9,9a4.5,4.5,0,1,1,4.5-4.5A4.505,4.505,0,0,1,9,9ZM23.25,7.5h-6a.75.75,0,1,1,0-1.5h6a.75.75,0,1,1,0,1.5Zm0-4.5h-6a.75.75,0,1,1,0-1.5h6a.75.75,0,1,1,0,1.5Z" transform="translate(0 3)" fill="#000000"/>
</svg>
