<svg id="info-circle-fill" xmlns="http://www.w3.org/2000/svg" width="24" height="24" viewBox="0 0 24 24">
  <path id="info-circle-fill-2" data-name="info-circle-fill" d="M12,24A12,12,0,0,1,3.515,3.515,12,12,0,1,1,20.485,20.485,11.922,11.922,0,0,1,12,24ZM13.395,9.882l-3.433.43-.122.571.676.122c.436.106.528.258.431.706l-1.107,5.2A1.874,1.874,0,0,0,10,18.492a1.276,1.276,0,0,0,1.049.4,3.105,3.105,0,0,0,2.2-.9l.132-.624a1.669,1.669,0,0,1-1.03.369.467.467,0,0,1-.383-.151.774.774,0,0,1-.072-.648l1.5-7.058ZM12,5.25a1.5,1.5,0,1,0,1.5,1.5A1.5,1.5,0,0,0,12,5.25Z" transform="translate(0 0)" fill="#ffffff"/>
</svg>
