<svg id="briefcase-fill" xmlns="http://www.w3.org/2000/svg" width="24" height="24" viewBox="0 0 24 24">
  <path id="Combined_Shape" data-name="Combined Shape" d="M2.25,19.5A2.25,2.25,0,0,1,0,17.25V8.775l11.806,3.146a.743.743,0,0,0,.387,0L24,8.775V17.25a2.251,2.251,0,0,1-2.25,2.25Zm9.171-9.13L0,7.326V5.25A2.253,2.253,0,0,1,2.25,3H7.5V2.25A2.253,2.253,0,0,1,9.75,0h4.5A2.252,2.252,0,0,1,16.5,2.25V3H21.75A2.252,2.252,0,0,1,24,5.25V7.326L12.579,10.371a2.231,2.231,0,0,1-1.158,0ZM9,2.25V3h6V2.25a.751.751,0,0,0-.751-.75H9.75A.751.751,0,0,0,9,2.25Z" transform="translate(0 1.5)" fill="#ffffff"/>
</svg>
