<svg width="24" height="24" viewBox="0 0 24 24" fill="none" xmlns="http://www.w3.org/2000/svg">
<path fill-rule="evenodd" clip-rule="evenodd" d="M8.62596 10.9503C8.37907 9.51067 8.84625 8.04078 9.879 7.00788L12.621 4.26588C14.3785 2.50838 17.228 2.50838 18.9855 4.26588C20.743 6.02339 20.743 8.87288 18.9855 10.6304L16.9275 12.6884C16.968 12.0404 16.9035 11.3879 16.7355 10.7579L17.925 9.56989C19.0972 8.39766 19.0972 6.49711 17.925 5.32489C16.7528 4.15266 14.8522 4.15266 13.68 5.32489L10.9395 8.06688C10.1817 8.82464 9.88561 9.92911 10.1628 10.9643C10.44 11.9995 11.2484 12.8082 12.2835 13.0859L11.121 14.2499C9.80311 13.6201 8.87285 12.3899 8.62596 10.9503ZM7.0724 9.81299L7.0725 9.81289V9.81139C7.07247 9.81192 7.07243 9.81245 7.0724 9.81299ZM7.0724 9.81299L5.0145 11.8709C3.25699 13.6284 3.25699 16.4779 5.0145 18.2354C6.77201 19.9929 9.62149 19.9929 11.379 18.2354L14.121 15.4919C15.1537 14.459 15.6209 12.9891 15.374 11.5495C15.1271 10.1099 14.1969 8.87965 12.879 8.24989L12 9.12889C11.9108 9.21827 11.8331 9.31856 11.769 9.42739C12.79 9.72089 13.5796 10.5325 13.845 11.5611C14.1104 12.5897 13.812 13.682 13.0605 14.4329L10.32 17.1749C9.14778 18.3471 7.24722 18.3471 6.075 17.1749C4.90278 16.0027 4.90278 14.1021 6.075 12.9299L7.2645 11.7419C7.09681 11.1135 7.03194 10.4621 7.0724 9.81299Z" fill="#000000"/>
</svg>
