<svg id="braces" xmlns="http://www.w3.org/2000/svg" width="24" height="24" viewBox="0 0 24 24">
  <path id="braces-2" data-name="braces" d="M15.207,17.944h-.564V16.5h.41c1.443,0,2.031-.669,2.031-2.308v-2.7a2.179,2.179,0,0,1,2.246-2.4V8.85a2.178,2.178,0,0,1-2.246-2.4v-2.7c0-1.638-.589-2.307-2.031-2.307h-.41V0h.564a3.64,3.64,0,0,1,2.685.868,3.575,3.575,0,0,1,.872,2.66V5.814C18.765,7.447,19.329,8,21,8V9.947h-.006c-1.667,0-2.229.551-2.229,2.182v2.286a3.577,3.577,0,0,1-.872,2.66A3.641,3.641,0,0,1,15.207,17.944Zm-8.851,0H5.793a3.642,3.642,0,0,1-2.687-.868,3.576,3.576,0,0,1-.872-2.66V12.13C2.235,10.5,1.671,9.947,0,9.947V8H.006c1.667,0,2.229-.551,2.229-2.183V3.528A3.575,3.575,0,0,1,3.107.868,3.642,3.642,0,0,1,5.793,0h.563V1.447h-.41c-1.442,0-2.03.669-2.03,2.308v2.7a2.177,2.177,0,0,1-2.245,2.4v.245a2.179,2.179,0,0,1,2.245,2.4v2.7c0,1.639.588,2.308,2.03,2.308h.41v1.444Z" transform="translate(1.5 3)" fill="#ffffff"/>
</svg>
