<svg height="56" viewBox="0 0 56 56" width="56" xmlns="http://www.w3.org/2000/svg"><path style="fill:#282828" d="m27.9999 51.9062c13.0547 0 23.9064-10.8515 23.9064-23.9062 0-13.0781-10.8751-23.9062-23.9298-23.9062-13.0782 0-23.8828 10.8281-23.8828 23.9062 0 13.0547 10.8281 23.9062 23.9062 23.9062zm0-25.2187c-3.2578-.0235-5.8359-2.7422-5.8359-6.375 0-3.3985 2.5781-6.2344 5.8359-6.2344 3.2344 0 5.8125 2.8359 5.8125 6.2344 0 3.6328-2.5781 6.4219-5.8125 6.375zm-10.3828 13.0547c-.9141 0-1.3594-.6094-1.3594-1.4297 0-2.5078 3.7735-8.9531 11.7422-8.9531 7.9688 0 11.7188 6.4453 11.7188 8.9531 0 .8203-.4454 1.4297-1.336 1.4297z"/></svg>