<svg id="star-half" xmlns="http://www.w3.org/2000/svg" width="24.003" height="24" viewBox="0 0 24.003 24">
  <path id="star-half-2" data-name="star-half" d="M5.068,22.5a.777.777,0,0,1-.593-.284.842.842,0,0,1-.18-.69L5.54,14.432.256,9.4A.829.829,0,0,1,0,8.793.882.882,0,0,1,.126,8.34a.767.767,0,0,1,.555-.368L8.028,6.928,11.3.438a.771.771,0,0,1,1.391,0l3.276,6.49,7.347,1.044A.808.808,0,0,1,24,8.73a.823.823,0,0,1-.255.668l-5.285,5.034L19.7,21.526a.842.842,0,0,1-.18.69.777.777,0,0,1-.593.284.754.754,0,0,1-.346-.086L12,19.031,5.414,22.414a.748.748,0,0,1-.219.075A.735.735,0,0,1,5.068,22.5ZM12,2.585h0l0,0v14.7a.778.778,0,0,1,.348.086l5.529,2.841L16.833,14.28a.847.847,0,0,1,.245-.758l4.359-4.155L15.358,8.5a.787.787,0,0,1-.589-.432L12,2.585Z" transform="translate(0.003 0.75)" fill="#6a6e73"/>
</svg>
