<svg id="file-earmark-text-fill" xmlns="http://www.w3.org/2000/svg" width="24" height="24" viewBox="0 0 24 24">
  <path id="file-earmark-text-fill-2" data-name="file-earmark-text-fill" d="M15,24H3a3,3,0,0,1-3-3V3A3,3,0,0,1,3,0h7.94A1.51,1.51,0,0,1,12,.439L17.561,6A1.51,1.51,0,0,1,18,7.061V21A3,3,0,0,1,15,24ZM3.75,18a.75.75,0,1,0,0,1.5h6a.75.75,0,1,0,0-1.5Zm0-3a.75.75,0,1,0,0,1.5h10.5a.75.75,0,1,0,0-1.5Zm0-3a.75.75,0,1,0,0,1.5h10.5a.75.75,0,1,0,0-1.5Zm7.5-9.75v3a1.5,1.5,0,0,0,1.5,1.5h3Z" transform="translate(3 0)" fill="#000000"/>
</svg>
