<svg width="24" height="24" viewBox="0 0 24 24" fill="none" xmlns="http://www.w3.org/2000/svg">
<path fill-rule="evenodd" clip-rule="evenodd" d="M7.539 22.5002C16.596 22.5002 21.5505 14.9957 21.5505 8.49923C21.5505 8.28923 21.5505 8.07623 21.5415 7.86623C22.5061 7.16795 23.3386 6.30345 24 5.31323C23.099 5.7105 22.1441 5.97233 21.1665 6.09023C22.1963 5.47468 22.9676 4.50618 23.337 3.36473C22.3695 3.93791 21.3105 4.34029 20.2065 4.55423C18.6805 2.92906 16.2537 2.53046 14.288 3.58213C12.3223 4.63381 11.3073 6.87392 11.8125 9.04523C7.85298 8.84668 4.16369 6.97724 1.662 3.90173C0.358709 6.15269 1.02688 9.02883 3.189 10.4747C2.40831 10.4482 1.64478 10.2386 0.96 9.86273V9.93023C0.962775 12.2726 2.61272 14.2899 4.908 14.7572C4.48539 14.8736 4.04884 14.9317 3.6105 14.9297C3.30148 14.9307 2.99307 14.902 2.6895 14.8442C3.33466 16.8495 5.18383 18.2224 7.29 18.2597C5.54483 19.6304 3.3891 20.3738 1.17 20.3702C0.778981 20.3719 0.388235 20.3493 0 20.3027C2.25227 21.7386 4.86795 22.501 7.539 22.5002Z" fill="#1C93E4"/>
</svg>
